{"title":"Homicycle.2014.AR-SUB.HDRip.XviD.AC3-N33B","uid":12242908,"size":904686215,"categoryP":"video","categoryS":"movies","magnet":"?xt=urn:btih:6662c42f3bc658cbb9ad17e3495a9e9615927630&amp;dn=Homicycle.2014.AR-SUB.HDRip.XviD.AC3-N33B&amp;tr=udp%3A%2F%2Ftracker.openbittorrent.com%3A80&amp;tr=udp%3A%2F%2Fopen.demonii.com%3A1337&amp;tr=udp%3A%2F%2Ftracker.coppersurfer.tk%3A6969&amp;tr=udp%3A%2F%2Fexodus.desync.com%3A6969","seeders":10,"leechers":3,"uploader":"xxxlavalxxx","files":4,"time":1439827370,"description":" &lt;a href=&quot;http://extraimago.com/image/yMA&quot; rel=&quot;nofollow&quot; target=&quot;_NEW&quot;&gt;http://extraimago.com/image/yMA&lt;/a&gt;\n &lt;a href=&quot;\nhttp://www.imdb.com/title/tt2846372/&quot; rel=&quot;nofollow&quot; target=&quot;_NEW&quot;&gt;\nhttp://www.imdb.com/title/tt2846372/&lt;/a&gt;\n\n\nIn a city riddled with corruption, drugs and gangs, a veteran cop is murdered by a vicious kingpin, sparking a brutal crime wave. Only one man can stop the bloodshed - a brutal, motorcycle riding vigilante bent on bloody revenge called HOMICYCLE - now picking off the killers one by one. Armed with an arsenal from Hell, he's cleaning the streets by decapitation, nail gun and motorcycle madness! Is he a gun-toting savior on a path of righteous redemption, or is he literally HELL ON WHEELS?\n\nDirector: Brett Kelly\nWriters: David A. Lloyd (screenplay), Jennifer Mulligan (additional dialogue)\nStars: Candice Lidstone, Peter Whittaker, Ian Quick \nGenres: Horror\nCountry: Canada\nLanguage: English\n\n\nHomicycle.2014.AR-SUB.HDRip.XviD.AC3-N33B\n &lt;a href=&quot;\nhttp://www.imdb.com/title/tt2846372/&quot; rel=&quot;nofollow&quot; target=&quot;_NEW&quot;&gt;\nhttp://www.imdb.com/title/tt2846372/&lt;/a&gt;\n\nSource is 720p.WEBDL-AnSa\n\nGeneral\nComplete name: Homicycle.2014.AR-SUB.HDRip.XviD.AC3-N33B.avi\nFormat: AVI\nFormat/Info: Audio Video Interleave\nFile size: 843 MiB\nDuration: 1h 10mn\nOverall bit rate: 1 677 Kbps\n\nVideo\nID: 0\nFormat: MPEG-4 Visual\nFormat profile: Advanced Simple@L5\nFormat settings, BVOP: 2\nFormat settings, QPel: No\nFormat settings, GMC: No warppoints\nFormat settings, Matrix: Default (H.263)\nMuxing mode: Packed bitstream\nCodec ID: XVID\nCodec ID/Hint: XviD\nDuration: 1h 10mn\nBit rate: 1 349 Kbps\nWidth: 720 pixels\nHeight: 400 pixels\nDisplay aspect ratio: 16:9\nFrame rate: 25.000 fps\nColor space: YUV\nChroma subsampling: 4:2:0\nBit depth: 8 bits\nScan type: Progressive\nCompression mode: Lossy\nBits/(Pixel*Frame): 0.187\nStream size: 678 MiB (80%)\nWriting library: XviD 73\n\nAudio\nID: 1\nFormat: AC-3\nFormat/Info: Audio Coding 3\nMode extension: CM (complete main)\nFormat settings, Endianness: Big\nCodec ID: 2000\nDuration: 1h 10mn\nBit rate mode: Constant\nBit rate: 320 Kbps\nChannel(s): 2 channels\nChannel positions: Front: L R\nSampling rate: 44.1 KHz\nCompression mode: Lossy\nStream size: 161 MiB (19%)\nAlignment: Aligned on interleaves\nInterleave, duration: 70 ms (1.74 video frames)\nInterleave, preload duration: 208 ms \n\n &lt;a href=&quot;\nhttp://extraimago.com/image/yMW&quot; rel=&quot;nofollow&quot; target=&quot;_NEW&quot;&gt;\nhttp://extraimago.com/image/yMW&lt;/a&gt; &lt;a href=&quot;\nhttp://extraimago.com/image/yMf&quot; rel=&quot;nofollow&quot; target=&quot;_NEW&quot;&gt;\nhttp://extraimago.com/image/yMf&lt;/a&gt; &lt;a href=&quot;\nhttp://extraimago.com/image/yU8&quot; rel=&quot;nofollow&quot; target=&quot;_NEW&quot;&gt;\nhttp://extraimago.com/image/yU8&lt;/a&gt; &lt;a href=&quot;\nhttp://extraimago.com/image/yUa&quot; rel=&quot;nofollow&quot; target=&quot;_NEW&quot;&gt;\nhttp://extraimago.com/image/yUa&lt;/a&gt;","torrent":{"xt":"urn:btih:6662c42f3bc658cbb9ad17e3495a9e9615927630","amp;dn":"Homicycle.2014.AR-SUB.HDRip.XviD.AC3-N33B","amp;tr":["udp%3A%2F%2Ftracker.openbittorrent.com%3A80","udp%3A%2F%2Fopen.demonii.com%3A1337","udp%3A%2F%2Ftracker.coppersurfer.tk%3A6969","udp%3A%2F%2Fexodus.desync.com%3A6969"],"infoHash":"6662c42f3bc658cbb9ad17e3495a9e9615927630","infoHashBuffer":{"type":"Buffer","data":[102,98,196,47,59,198,88,203,185,173,23,227,73,90,158,150,21,146,118,48]},"announce":[],"urlList":[]}}